<svg xmlns="http://www.w3.org/2000/svg" xmlns:xlink="http://www.w3.org/1999/xlink" version="1.1" id="icons_x5F_unsorted" x="0px" y="0px" width="400px" height="300px" viewBox="0 0 400 300" enable-background="new 0 0 400 300" xml:space="preserve">
          <path xmlns="http://www.w3.org/2000/svg" fill="none" stroke="#231F20" stroke-miterlimit="10" d="M225.559,154.307c0.55,0,1,0.45,1,1v20.27c0,0.55-0.45,1-1,1h-30.08   c-0.55,0-1-0.45-1-1v-20.27c0-0.55,0.45-1,1-1H225.559z"/>
          <path xmlns="http://www.w3.org/2000/svg" fill="none" stroke="#231F20" stroke-miterlimit="10" d="M221.592,154.307c2.2,0,4,0.116,4,0.258s-1.24,1.562-2.756,3.157   l-9.49,9.987c-1.516,1.595-3.995,1.595-5.511-0.001l-9.957-10.484c-1.516-1.596-2.755-2.904-2.755-2.909c0-0.004,1.8-0.008,4-0.008   H221.592z"/>
          <path xmlns="http://www.w3.org/2000/svg" fill="#231F20" d="M195.569,176.043c-0.22,0.221-0.567,0.228-0.776,0.018l0,0c-0.211-0.209-0.203-0.557,0.017-0.776  l8.575-8.575c0.219-0.219,0.566-0.227,0.777-0.018l0,0c0.209,0.21,0.201,0.558-0.018,0.777L195.569,176.043z"/>
          <path xmlns="http://www.w3.org/2000/svg" fill="#231F20" d="M225.406,176.15c0.219,0.221,0.566,0.228,0.776,0.018l0,0c0.21-0.209,0.202-0.557-0.017-0.776l-8.576-8.575  c-0.219-0.219-0.566-0.227-0.776-0.018l0,0c-0.21,0.21-0.202,0.558,0.017,0.777L225.406,176.15z"/>
          <path xmlns="http://www.w3.org/2000/svg" fill="none" stroke="#231F20" stroke-miterlimit="10" d="M205.719,157.749c0,1.201-0.974,2.175-2.175,2.175l0,0  c-1.202,0-2.175-0.974-2.175-2.175l0,0c0-1.201,0.973-2.175,2.175-2.175l0,0C204.745,155.574,205.719,156.548,205.719,157.749  L205.719,157.749z"/>
          <path xmlns="http://www.w3.org/2000/svg" fill="#231F20" d="M212.402,156.5c0,0.259-0.21,0.469-0.469,0.469h-4.812c-0.259,0-0.469-0.21-0.469-0.469l0,0  c0-0.259,0.21-0.469,0.469-0.469h4.812C212.192,156.031,212.402,156.241,212.402,156.5L212.402,156.5z"/>
          <path xmlns="http://www.w3.org/2000/svg" fill="#231F20" d="M214.434,157.906c0,0.259-0.21,0.469-0.469,0.469h-5.531c-0.259,0-0.469-0.21-0.469-0.469l0,0  c0-0.259,0.21-0.469,0.469-0.469h5.531C214.224,157.438,214.434,157.647,214.434,157.906L214.434,157.906z"/>
          <path xmlns="http://www.w3.org/2000/svg" fill="#231F20" d="M212.84,159.438c0,0.259-0.21,0.469-0.469,0.469h-5.219c-0.259,0-0.469-0.21-0.469-0.469l0,0  c0-0.259,0.21-0.469,0.469-0.469h5.219C212.63,158.969,212.84,159.179,212.84,159.438L212.84,159.438z"/>
        </svg>