<?xml version="1.0" encoding="utf-8"?>
<!-- Generator: Adobe Illustrator 16.0.0, SVG Export Plug-In . SVG Version: 6.00 Build 0)  -->
<!DOCTYPE svg PUBLIC "-//W3C//DTD SVG 1.1//EN" "http://www.w3.org/Graphics/SVG/1.1/DTD/svg11.dtd">
<svg version="1.1" id="Layer_1" xmlns="http://www.w3.org/2000/svg" xmlns:xlink="http://www.w3.org/1999/xlink" x="0px" y="0px"
	 width="64px" height="64px" viewBox="0 0 64 64" enable-background="new 0 0 64 64" xml:space="preserve">
<g id="Rectangle_34">
	<g>
		<rect x="7" y="1" fill="#F48284" width="46" height="62"/>
	</g>
</g>
<g id="icon_7_">
	<g>
		<path fill="#2B3139" d="M22.941,54.003c0.872-1.348,1.478-3.134,1.599-3.916c3.098-1.431,6.609-1.962,9.479-2.14
			c0.664,0.585,1.58,1.474,2.427,2.166c2.144,1.753,3.691,2.312,5.36,1.439c0.624-0.326,1.031-1.048,1.132-1.886
			c0.007-0.023,0.02-0.04,0.026-0.064l0.015-0.08c0-1.135-0.704-2.913-3.048-3.296c-1.918-0.313-4.473-0.235-5.527-0.141
			c-3.073-2.345-5.637-4.575-7.246-6.089c0.126-1.224,0.29-3.524-0.096-4.747c-0.941-2.983-4.525-3.083-5.023,0.106
			c-0.368,2.356,2.262,4.664,3.011,5.268c-0.512,2.282-1.475,6.077-2.04,8.274c-0.663,0.294-1.525,0.694-2.288,1.112
			c-1.523,0.835-2.732,2.579-2.704,3.729C18.1,57.084,21.487,56.252,22.941,54.003z M36.881,47.976c1.313,0,2.239-0.016,2.287-0.012
			c0.303,0.011,1.198,0.162,1.611,0.646c0.161,0.189,0.224,0.323,0.193,0.618C40.773,49.962,40.45,50,40.098,50
			c-0.409,0-0.96-0.232-1.05-0.273c-1.024-0.641-1.135-0.838-2.224-1.772C36.833,47.954,36.872,47.976,36.881,47.976z
			 M26.732,42.009l5.094,4.357c-0.977,0.116-2.355,0.259-3.64,0.567c-1.159,0.277-2.119,0.646-2.87,0.924L26.732,42.009z
			 M25.018,37.902c-1.132-1.256-1.114-2.159-1.054-2.369c0.1-0.351,0.238-0.546,0.492-0.546c0.414,0,0.552,0.294,0.644,0.428
			c0.231,0.341,0.422,1.222,0.328,2.904C25.16,38.052,25.018,37.902,25.018,37.902z M20.217,52.941
			c0.616-0.951,1.168-1.346,2.236-1.926c-1.041,2.74-2.023,2.978-2.417,2.99c-0.01-0.009-0.015-0.018-0.02-0.027
			C19.915,53.779,20.037,53.296,20.217,52.941z M56,8h-2V2c0-1.104-0.896-2-2-2H8C6.896,0,6,0.896,6,2v60c0,1.104,0.896,2,2,2h44
			c1.104,0,2-0.896,2-2V26h2c1.104,0,2-0.896,2-2V10C58,8.896,57.104,8,56,8z M52,8H28c-1.104,0-2,0.896-2,2v14c0,1.104,0.896,2,2,2
			h24v36H8V2h44V8z"/>
	</g>
</g>
<g id="Rectangle_58">
	<g>
		<rect x="28" y="10" fill="#FFFFFF" width="28" height="14"/>
	</g>
</g>
<g>
	<path fill="#2B3139" d="M31.677,13.364h3.679c1.938,0,2.617,1.419,2.617,2.438c0,1.729-1.158,2.538-2.798,2.538h-1.3V20.5h-2.198
		V13.364z M33.875,16.643h0.85c0.57,0,1.17-0.04,1.17-0.76c0-0.65-0.5-0.689-1.039-0.689h-0.98V16.643z"/>
	<path fill="#2B3139" d="M38.717,13.364h3.607c2.379,0,3.219,1.759,3.219,3.558c0,2.188-1.159,3.578-3.648,3.578h-3.178V13.364z
		 M40.916,18.671h0.859c1.369,0,1.568-1.109,1.568-1.779c0-0.449-0.14-1.698-1.729-1.698h-0.699V18.671z"/>
	<path fill="#2B3139" d="M46.496,13.364h5.518v1.829h-3.318v0.889h2.849v1.699h-2.849V20.5h-2.199V13.364z"/>
</g>
</svg>
